
<svg>
    <symbol xmlns="http://www.w3.org/2000/svg" id="ico-crown" width="24" height="24" viewBox="0 0 24 24" fill="none">
        <path d="M19.9 19.42C19.951 19.723 19.717 20 19.41 20H4.59005C4.28205 20 4.048 19.723 4.1 19.42L4.50802 17C4.53202 16.856 4.65704 16.75 4.80404 16.75H19.197C19.343 16.75 19.468 16.856 19.493 17L19.9 19.42ZM19.49 7.53L16.99 9.04001C16.538 9.31301 15.951 9.181 15.66 8.74L12.821 4.44102C12.433 3.85302 11.57 3.85201 11.18 4.44001L8.34005 8.73002C8.05005 9.18002 7.46003 9.31001 7.00003 9.03L4.51003 7.53C3.77003 7.08 2.85004 7.72001 3.02004 8.57001L4.46701 15.016C4.49801 15.153 4.61903 15.25 4.76003 15.25H19.24C19.38 15.25 19.502 15.153 19.533 15.016L20.98 8.57001C21.15 7.72001 20.23 7.08 19.49 7.53Z" fill="#FF7355"/>
    </symbol>

    <symbol xmlns="http://www.w3.org/2000/svg" id="ico-fire" width="24" height="24" viewBox="0 0 24 24" fill="none">
        <path d="M17.356 8.649C17.213 8.504 16.996 8.46 16.81 8.537C16.622 8.614 16.499 8.79701 16.499 9.00001C16.499 9.76201 16.338 10.458 16.022 11.07C15.529 12.025 14.726 12.64 14.055 13.015C16.915 6.44702 11.337 2.62399 11.277 2.58399C11.123 2.48099 10.925 2.47203 10.764 2.55903C10.601 2.64603 10.5 2.81601 10.5 3.00001C10.5 5.19701 9.037 6.49403 7.621 7.74903C7.275 8.05503 6.942 8.35098 6.646 8.64698C5.142 10.151 4.5 11.752 4.5 14.001C4.5 18.136 7.864 21.501 12 21.501C16.136 21.501 19.5 18.136 19.5 14.001C19.5 11.984 18.719 10.033 17.356 8.649Z" fill="#FF2045"/>
    </symbol>

    <symbol width="58" height="58" viewBox="0 0 58 58" id="ico-learning" fill="none" xmlns="http://www.w3.org/2000/svg">
        <path opacity="0.5" d="M29 58C45.0163 58 58 45.0163 58 29C58 12.9837 45.0163 0 29 0C12.9837 0 0 12.9837 0 29C0 45.0163 12.9837 58 29 58Z" fill="#FFE3DD"/>
        <path opacity="0.4" d="M27.0465 33.0254L21.0173 29.736H21V35.2666C21 36.1973 21.4919 37.0587 22.2799 37.5547C26.7599 40.372 31.2387 40.372 35.7187 37.5547C36.5067 37.0587 36.9987 36.1986 36.9987 35.2666V29.736H36.9814L30.9521 33.0254C29.7361 33.6894 28.2639 33.6894 27.0465 33.0254Z" fill="#FF7355"/>
        <path d="M38.6667 27.228V34.3333C38.6667 34.8853 39.1147 35.3333 39.6667 35.3333C40.2187 35.3333 40.6667 34.8853 40.6667 34.3333V27.228H38.6667Z" fill="#FF7355"/>
        <path d="M39.5821 23.54L30.9541 18.832C29.7368 18.168 28.2646 18.168 27.0459 18.832L18.418 23.54C16.5273 24.5707 16.5273 27.2853 18.418 28.3173L27.0459 33.0253C28.2633 33.6893 29.7355 33.6893 30.9541 33.0253L39.5821 28.3173C40.0727 28.0493 40.43 27.6653 40.666 27.2293C41.338 25.9853 40.9807 24.3027 39.5821 23.54Z" fill="#FF7355"/>
    </symbol>


    <symbol xmlns="http://www.w3.org/2000/svg" id="ico-choice-questions" width="24" height="24" viewBox="0 0 24 24" fill="none">
        <path d="M12 2.5C6.76 2.5 2.5 6.76 2.5 12C2.5 17.24 6.76 21.5 12 21.5C17.24 21.5 21.5 17.24 21.5 12C21.5 6.76 17.24 2.5 12 2.5ZM14.71 12.71L11.71 15.71C11.51 15.9 11.26 16 11 16C10.74 16 10.49 15.9 10.29 15.71C9.89998 15.32 9.89998 14.68 10.29 14.29L12.59 12L10.29 9.70996C9.89998 9.31996 9.89998 8.68004 10.29 8.29004C10.68 7.90004 11.32 7.90004 11.71 8.29004L14.71 11.29C15.1 11.68 15.1 12.32 14.71 12.71Z" fill="#87898F"/>
    </symbol>

    <symbol width="40" height="40" id="ico-DVSA" viewBox="0 0 40 40" fill="none" xmlns="http://www.w3.org/2000/svg">
        <path opacity="0.1" d="M20 40C31.0457 40 40 31.0457 40 20C40 8.9543 31.0457 0 20 0C8.9543 0 0 8.9543 0 20C0 31.0457 8.9543 40 20 40Z" fill="#FF2045"/>
        <path d="M28.3379 24.7145V29.2921C28.3379 29.6791 28.017 30 27.63 30H12.925C12.538 30 12.2171 29.6791 12.2171 29.2921V10.7079C12.2171 10.3209 12.538 10 12.925 10H18.6682C19.0599 10 19.3761 10.3209 19.3761 10.7079V24.0066H27.63C28.017 24.0066 28.3379 24.3228 28.3379 24.7145Z" fill="#FF2045"/>
    </symbol>

    <symbol width="40" height="40" viewBox="0 0 40 40" id="ico-express-mode" fill="none" xmlns="http://www.w3.org/2000/svg">
        <path opacity="0.1" d="M20 40C31.0457 40 40 31.0457 40 20C40 8.9543 31.0457 0 20 0C8.9543 0 0 8.9543 0 20C0 31.0457 8.9543 40 20 40Z" fill="#6B2ABC"/>
        <g opacity="0.4">
        <path d="M26.65 20.45C23.91 23.19 21.84 23.93 18.22 24.89C18.05 24.94 17.86 24.89 17.73 24.76L15.21 22.24C15.08 22.11 15.03 21.91 15.09 21.74C16.15 18.23 16.88 16.16 19.62 13.42C22.63 10.41 27.14 10.97 28.38 11.19C28.58 11.23 28.74 11.38 28.78 11.58C29.03 12.83 29.67 17.44 26.66 20.45H26.65Z" fill="#6B2ABC"/>
        </g>
        <path d="M15.18 24.82C15.93 25.57 15.86 26.85 15.03 27.68C14.27 28.44 11.38 29.16 11.06 29.24C11.04 29.24 11.02 29.24 11 29.24C10.93 29.24 10.87 29.21 10.82 29.17C10.76 29.11 10.73 29.02 10.76 28.93C10.85 28.59 11.67 25.58 12.42 24.82C12.81 24.43 13.32 24.21 13.83 24.23C14.32 24.24 14.8 24.45 15.17 24.82H15.18ZM22.76 23.34C22.76 23.34 16.72 17.3 16.71 17.3C17.14 16.47 17.65 15.68 18.31 14.86C18.25 14.82 18.18 14.8 18.11 14.82L15.74 15.32C13.94 15.61 12.4 16.85 11.73 18.54L10.77 20.93C10.73 21.01 10.75 21.11 10.81 21.18C10.86 21.24 10.93 21.27 11 21.27C11.02 21.27 11.04 21.27 11.05 21.26L15.55 20.26C15.78 19.54 16.01 18.89 16.27 18.27L21.78 23.77C21.15 24.02 20.49 24.24 19.76 24.46L18.76 28.95C18.74 29.04 18.77 29.13 18.84 29.19C18.88 29.23 18.94 29.25 19 29.25C19.03 29.25 19.06 29.24 19.09 29.23L21.48 28.27C23.18 27.6 24.42 26.07 24.7 24.28L25.19 22.01C25.21 21.94 25.19 21.87 25.15 21.81C24.35 22.45 23.58 22.94 22.76 23.34ZM23.25 19.02C24.49 19.02 25.5 18.01 25.5 16.78C25.5 15.55 24.49 14.54 23.25 14.54C22.01 14.54 21 15.55 21 16.78C21 18.01 22.01 19.02 23.25 19.02Z" fill="#6B2ABC"/>
    </symbol>
    
    <symbol width="40" height="40" viewBox="0 0 40 40" id="ico-hazard-perception" fill="none" xmlns="http://www.w3.org/2000/svg">
        <path opacity="0.1" d="M20 40C31.0457 40 40 31.0457 40 20C40 8.9543 31.0457 0 20 0C8.9543 0 0 8.9543 0 20C0 31.0457 8.9543 40 20 40Z" fill="#6B2ABC"/>
        <path opacity="0.4" fill-rule="evenodd" clip-rule="evenodd" d="M14 26H26C28 26 29 24.923 29 22.769V15.23C29 13.076 28 11.999 26 11.999H14C12 11.999 11 13.076 11 15.23V22.769C11 24.923 12 26 14 26Z" fill="#6B2ABC"/>
        <path d="M25 29.75H15C14.586 29.75 14.25 29.414 14.25 29C14.25 28.586 14.586 28.25 15 28.25H25C25.414 28.25 25.75 28.586 25.75 29C25.75 29.414 25.414 29.75 25 29.75Z" fill="#6B2ABC"/>
        <path d="M22.582 18.2538L19.4331 16.3268C18.8061 15.9438 18 16.3929 18 17.1259V20.873C18 21.606 18.8061 22.056 19.4331 21.672L22.582 19.745C23.139 19.404 23.139 18.5958 22.582 18.2538Z" fill="#25314C"/>
    </symbol>

    <symbol width="40" height="40" viewBox="0 0 40 40" id="ico-road-signs" fill="none" xmlns="http://www.w3.org/2000/svg">
        <path opacity="0.1" d="M20 40C31.0457 40 40 31.0457 40 20C40 8.9543 31.0457 0 20 0C8.9543 0 0 8.9543 0 20C0 31.0457 8.9543 40 20 40Z" fill="#6B2ABC"/>
        <path opacity="0.4" d="M20 9C13.935 9 9 13.935 9 20C9 26.065 13.935 31 20 31C26.065 31 31 26.065 31 20C31 13.935 26.065 9 20 9Z" fill="#6B2ABC"/>
        <path d="M17.7595 16.9446H22.7189L21.6653 15.8911C21.3467 15.5725 21.3467 15.0575 21.6653 14.7389C21.9839 14.4204 22.499 14.4204 22.8176 14.7389L25.2614 17.1825C25.3372 17.2583 25.3967 17.3479 25.4383 17.4481C25.5206 17.6469 25.5206 17.8719 25.4383 18.0707C25.3967 18.171 25.3372 18.2605 25.2614 18.3363L22.8176 20.7799C22.6587 20.9388 22.45 21.0186 22.2414 21.0186C22.0328 21.0186 21.8242 20.9388 21.6653 20.7799C21.3467 20.4613 21.3467 19.9463 21.6653 19.6277L22.7189 18.5742H17.7595C16.8607 18.5742 16.1298 19.3051 16.1298 20.2038V24.6852C16.1298 25.135 15.7655 25.5 15.3149 25.5C14.8643 25.5 14.5 25.135 14.5 24.6852V20.2038C14.5 18.4064 15.9619 16.9446 17.7595 16.9446Z" fill="#6B2ABC"/>
    </symbol>

    <symbol width="40" height="40" viewBox="0 0 40 40" id="ico-multiplayer-learning" fill="none" xmlns="http://www.w3.org/2000/svg">
        <path opacity="0.1" d="M20 40C31.0457 40 40 31.0457 40 20C40 8.9543 31.0457 0 20 0C8.9543 0 0 8.9543 0 20C0 31.0457 8.9543 40 20 40Z" fill="#6B2ABC"/>
        <path opacity="0.4" d="M24 15H16C13 15 11 17 11 21V25C11 27 12 29 14 29H14.2529C15.3439 29 16.3631 28.453 16.9651 27.543C16.9651 27.543 17.972 26 20 26C22.028 26 23.0339 27.552 23.0339 27.552C23.6369 28.457 24.653 29 25.74 29H26C28 29 29 27 29 25V21C29 17 27 15 24 15Z" fill="#6B2ABC"/>
        <path d="M18 20.25H16.75V19C16.75 18.586 16.414 18.25 16 18.25C15.586 18.25 15.25 18.586 15.25 19V20.25H14C13.586 20.25 13.25 20.586 13.25 21C13.25 21.414 13.586 21.75 14 21.75H15.25V23C15.25 23.414 15.586 23.75 16 23.75C16.414 23.75 16.75 23.414 16.75 23V21.75H18C18.414 21.75 18.75 21.414 18.75 21C18.75 20.586 18.414 20.25 18 20.25Z" fill="#6B2ABC"/>
        <path d="M24.75 11C24.75 12.24 23.74 13.25 22.5 13.25H21.5C21.09 13.25 20.75 13.59 20.75 14V15H19.25V14C19.25 12.76 20.26 11.75 21.5 11.75H22.5C22.91 11.75 23.25 11.41 23.25 11C23.25 10.59 23.59 10.25 24 10.25C24.41 10.25 24.75 10.59 24.75 11Z" fill="#6B2ABC"/>
        <path d="M26.25 19.751C26.25 20.303 25.802 20.751 25.25 20.751C24.698 20.751 24.25 20.303 24.25 19.751C24.25 19.199 24.698 18.751 25.25 18.751C25.802 18.751 26.25 19.199 26.25 19.751ZM22.75 21.25C22.198 21.25 21.75 21.698 21.75 22.25C21.75 22.802 22.198 23.25 22.75 23.25C23.302 23.25 23.75 22.802 23.75 22.25C23.75 21.698 23.302 21.25 22.75 21.25Z" fill="#6B2ABC"/>
    </symbol>

    <symbol width="58" height="58" viewBox="0 0 59 58" id="ico-mistakes" fill="none" xmlns="http://www.w3.org/2000/svg">
        <path d="M29.5109 58C45.5271 58 58.5109 45.0163 58.5109 29C58.5109 12.9837 45.5271 0 29.5109 0C13.4946 0 0.510864 12.9837 0.510864 29C0.510864 45.0163 13.4946 58 29.5109 58Z" fill="#FF7355"/>
        <path d="M35.3875 28.5065C35.524 28.643 35.524 28.8658 35.3875 29.0023L24.8442 39.5H19.0109V33.6666L29.5086 23.1235C29.6451 22.9858 29.8668 22.9858 30.0045 23.1235L35.3875 28.5065ZM39.3224 21.7784L36.7325 19.1883C35.8178 18.2736 34.334 18.2736 33.4193 19.1883L31.2281 21.3793C31.0916 21.5158 31.0916 21.7374 31.2281 21.8739L36.6368 27.2826C36.7733 27.4191 36.995 27.4191 37.1315 27.2826L39.3224 25.0917C40.2371 24.177 40.2371 22.693 39.3224 21.7784Z" fill="white"/>
    </symbol>

    <symbol width="58" height="58" viewBox="0 0 58 58" id="ico-statistics" fill="none" xmlns="http://www.w3.org/2000/svg">
        <path d="M28.9998 58C45.016 58 57.9998 45.0163 57.9998 29C57.9998 12.9837 45.016 0 28.9998 0C12.9835 0 -0.000244141 12.9837 -0.000244141 29C-0.000244141 45.0163 12.9835 58 28.9998 58Z" fill="#FF7355"/>
        <path d="M39.4998 40.375H18.4998C18.0168 40.375 17.6248 39.983 17.6248 39.5C17.6248 39.017 18.0168 38.625 18.4998 38.625H39.4998C39.9828 38.625 40.3748 39.017 40.3748 39.5C40.3748 39.983 39.9828 40.375 39.4998 40.375ZM31.3331 34.25V20.25C31.3331 19.0833 30.7498 18.5 29.5831 18.5H28.4164C27.2498 18.5 26.6664 19.0833 26.6664 20.25V34.25C26.6664 35.4167 27.2498 36 28.4164 36H29.5831C30.7498 36 31.3331 35.4167 31.3331 34.25ZM39.4998 34.25V24.9167C39.4998 23.75 38.9164 23.1667 37.7498 23.1667H36.5831C35.4164 23.1667 34.8331 23.75 34.8331 24.9167V34.25C34.8331 35.4167 35.4164 36 36.5831 36H37.7498C38.9164 36 39.4998 35.4167 39.4998 34.25ZM23.1664 34.25V28.4167C23.1664 27.25 22.5831 26.6667 21.4164 26.6667H20.2498C19.0831 26.6667 18.4998 27.25 18.4998 28.4167V34.25C18.4998 35.4167 19.0831 36 20.2498 36H21.4164C22.5831 36 23.1664 35.4167 23.1664 34.25Z" fill="white"/>
    </symbol>

    <symbol width="58" height="58" viewBox="0 0 58 58" id="ico-highway-code" fill="none" xmlns="http://www.w3.org/2000/svg">
        <path d="M29.0002 58C45.0165 58 58.0002 45.0163 58.0002 29C58.0002 12.9837 45.0165 0 29.0002 0C12.984 0 0.000244141 12.9837 0.000244141 29C0.000244141 45.0163 12.984 58 29.0002 58Z" fill="#FF7355"/>
        <path d="M36.5836 17.625H23.1669C20.3459 17.625 18.7919 19.179 18.7919 22V36C18.7919 38.6168 20.5501 40.375 23.1669 40.375H36.5836C38.0303 40.375 39.2086 39.1978 39.2086 37.75V30.75V20.25C39.2086 18.8022 38.0303 17.625 36.5836 17.625ZM25.5002 22.2917H32.5003C32.9833 22.2917 33.3753 22.6837 33.3753 23.1667C33.3753 23.6497 32.9833 24.0417 32.5003 24.0417H25.5002C25.0172 24.0417 24.6252 23.6497 24.6252 23.1667C24.6252 22.6837 25.0172 22.2917 25.5002 22.2917ZM25.5002 25.7917H30.1669C30.6499 25.7917 31.0419 26.1837 31.0419 26.6667C31.0419 27.1497 30.6499 27.5417 30.1669 27.5417H25.5002C25.0172 27.5417 24.6252 27.1497 24.6252 26.6667C24.6252 26.1837 25.0172 25.7917 25.5002 25.7917ZM37.4586 37.75C37.4586 38.233 37.0654 38.625 36.5836 38.625H23.1669C20.7986 38.625 20.5419 36.7887 20.5419 36C20.5419 35.2113 20.7986 33.375 23.1669 33.375H36.5836C36.7528 33.375 36.9162 33.3552 37.0761 33.3249C37.1274 33.3155 37.1763 33.298 37.2264 33.2851C37.3034 33.2653 37.3839 33.2513 37.4586 33.2245V37.75Z" fill="white"/>
    </symbol>
    
    <symbol width="58" height="58" id="ico-favorites" viewBox="0 0 59 58" fill="none" xmlns="http://www.w3.org/2000/svg">
        <path d="M29.5106 58C45.5269 58 58.5106 45.0163 58.5106 29C58.5106 12.9837 45.5269 0 29.5106 0C13.4944 0 0.51062 12.9837 0.51062 29C0.51062 45.0163 13.4944 58 29.5106 58Z" fill="#FF7355"/>
        <path d="M38.8405 20.3316V36L38.8323 35.9836V36L36.0919 34.432C35.9823 34.3702 35.9156 34.2535 35.9156 34.1287C35.9156 34.1287 35.9156 24.9224 35.9156 24.8828C35.8678 21.9813 34.1119 20.2512 31.1789 20.25H25.0972C24.8942 20.25 24.8336 20.0727 24.8511 19.8709C24.9969 18.1862 25.9932 17.3333 27.8307 17.3333H35.8339H35.8421C37.8371 17.3333 38.8405 18.3366 38.8405 20.3316ZM34.1773 24.9995V40.6667L27.1773 36.6674L20.1773 40.6667V24.9995C20.1773 22.9999 21.1772 22 23.1768 22H31.1766C33.1774 22 34.1773 22.9999 34.1773 24.9995ZM24.9607 27.1334C24.9607 28.356 25.9558 29.3501 27.1773 29.3501C28.3988 29.3501 29.3938 28.356 29.3938 27.1334C29.3938 25.9107 28.3988 24.9167 27.1773 24.9167C25.9558 24.9167 24.9607 25.9107 24.9607 27.1334ZM30.7006 33.3703C30.7006 32.01 29.7067 30.6334 27.8073 30.6334H26.5495C24.649 30.6334 23.6562 32.01 23.6562 33.3703V33.6667C23.6562 33.9887 23.9175 34.25 24.2395 34.25H30.1184C30.4404 34.25 30.7018 33.9887 30.7018 33.6667V33.3703H30.7006Z" fill="white"/>
    </symbol>

    <symbol width="24" height="24" viewBox="0 0 24 24" id="arrow-left" fill="none" xmlns="http://www.w3.org/2000/svg">
        <path d="M21.5 12C21.5 12.414 21.164 12.75 20.75 12.75H4.561L10.281 18.47C10.574 18.763 10.574 19.238 10.281 19.531C10.135 19.677 9.943 19.751 9.751 19.751C9.559 19.751 9.36703 19.678 9.22103 19.531L2.22103 12.531C1.92803 12.238 1.92803 11.763 2.22103 11.47L9.22103 4.46999C9.51403 4.17699 9.98901 4.17699 10.282 4.46999C10.575 4.76299 10.575 5.23803 10.282 5.53103L4.56204 11.251H20.75C21.164 11.25 21.5 11.586 21.5 12Z" fill="#41416E"/>
    </symbol>

    <symbol width="24" height="24" viewBox="0 0 24 24" id="ico-active-question" fill="none" xmlns="http://www.w3.org/2000/svg">
        <path d="M12 2C6.48 2 2 6.48 2 12C2 17.52 6.48 22 12 22C17.52 22 22 17.52 22 12C22 6.48 17.52 2 12 2ZM16.03 10.2L11.36 14.86C11.22 15.01 11.03 15.08 10.83 15.08C10.64 15.08 10.45 15.01 10.3 14.86L7.97 12.53C7.68 12.24 7.68 11.76 7.97 11.47C8.26 11.18 8.74 11.18 9.03 11.47L10.83 13.27L14.97 9.14001C15.26 8.84001 15.74 8.84001 16.03 9.14001C16.32 9.43001 16.32 9.90001 16.03 10.2Z" fill="#52A754"/>
    </symbol>

</svg>
